<svg width="256" height="290" viewBox="0 0 256 290" fill="none" xmlns="http://www.w3.org/2000/svg">
<g clip-path="url(#clip0_459_2873)">
<path d="M189.72 104.421C208.398 117.766 231.28 125.618 255.993 125.618V78.0878C251.316 78.0888 246.651 77.6008 242.075 76.6318V114.045C217.364 114.045 194.485 106.194 175.803 92.8498V189.846C175.803 238.369 136.447 277.701 87.903 277.701C69.79 277.701 52.954 272.228 38.969 262.841C54.931 279.154 77.191 289.273 101.817 289.273C150.365 289.273 189.722 249.941 189.722 201.416V104.421H189.72ZM206.89 56.4688C197.344 46.0458 191.076 32.5758 189.72 17.6838V11.5708H176.531C179.851 30.4978 191.176 46.6678 206.89 56.4688ZM69.673 225.607C64.3399 218.618 61.457 210.068 61.47 201.277C61.47 179.085 79.471 161.091 101.68 161.091C105.818 161.089 109.932 161.724 113.877 162.974V114.381C109.267 113.75 104.615 113.481 99.965 113.58V151.402C96.0183 150.151 91.9022 149.516 87.762 149.52C65.554 149.52 47.554 167.512 47.554 189.707C47.554 205.401 56.551 218.988 69.673 225.607Z" fill="#FF004F"/>
<path d="M175.803 92.8488C194.486 106.193 217.363 114.044 242.075 114.044V76.6308C228.281 73.6938 216.07 66.4898 206.889 56.4688C191.174 46.6668 179.851 30.4968 176.531 11.5708H141.888V201.414C141.809 223.546 123.839 241.466 101.678 241.466C88.62 241.466 77.018 235.245 69.671 225.606C56.551 218.988 47.553 205.4 47.553 189.708C47.553 167.515 65.553 149.521 87.761 149.521C92.016 149.521 96.117 150.183 99.964 151.403V113.581C52.272 114.566 13.917 153.514 13.917 201.415C13.917 225.327 23.468 247.004 38.97 262.843C52.955 272.228 69.79 277.703 87.904 277.703C136.449 277.703 175.804 238.368 175.804 189.846V92.8498L175.803 92.8488Z" fill="black"/>
<path d="M242.075 76.63V66.516C229.636 66.5348 217.443 63.0532 206.889 56.469C216.231 66.6911 228.532 73.7403 242.075 76.632V76.63ZM176.53 11.57C176.214 9.76161 175.971 7.94111 175.802 6.113V0H127.968V189.845C127.892 211.975 109.922 229.895 87.76 229.895C81.4773 229.904 75.2804 228.436 69.67 225.608C77.017 235.245 88.619 241.465 101.677 241.465C123.837 241.465 141.809 223.547 141.887 201.415V11.571H176.53V11.57ZM99.966 113.58V102.811C95.9689 102.265 91.9392 101.991 87.905 101.993C39.355 101.993 0 141.327 0 189.845C0 220.264 15.467 247.072 38.971 262.841C23.469 247.003 13.918 225.325 13.918 201.414C13.918 153.514 52.272 114.565 99.966 113.58Z" fill="#00F2EA"/>
</g>
<defs>
<clipPath id="clip0_459_2873">
<rect width="256" height="290" fill="white"/>
</clipPath>
</defs>
</svg>
